<?xml version="1.0" encoding="utf-8" standalone="no"?>
<!DOCTYPE svg PUBLIC "-//W3C//DTD SVG 1.1//EN"
  "http://www.w3.org/Graphics/SVG/1.1/DTD/svg11.dtd">
<svg xmlns:xlink="http://www.w3.org/1999/xlink" width="518.4pt" height="374.4pt" viewBox="0 0 518.4 374.4" xmlns="http://www.w3.org/2000/svg" version="1.1">
 <metadata>
  <rdf:RDF xmlns:dc="http://purl.org/dc/elements/1.1/" xmlns:cc="http://creativecommons.org/ns#" xmlns:rdf="http://www.w3.org/1999/02/22-rdf-syntax-ns#">
   <cc:Work>
    <dc:type rdf:resource="http://purl.org/dc/dcmitype/StillImage"/>
    <dc:date>2026-09-15T20:29:43.113312</dc:date>
    <dc:format>image/svg+xml</dc:format>
    <dc:creator>
     <cc:Agent>
      <dc:title>Matplotlib v3.8.0, https://matplotlib.org/</dc:title>
     </cc:Agent>
    </dc:creator>
   </cc:Work>
  </rdf:RDF>
 </metadata>
 <defs>
  <style type="text/css">*{stroke-linejoin: round; stroke-linecap: butt}</style>
 </defs>
 <g id="figure_1">
  <g id="patch_1">
   <path d="M 0 374.4 
L 518.4 374.4 
L 518.4 0 
L 0 0 
z
" style="fill: #ffffff"/>
  </g>
  <g id="axes_1">
   <g id="patch_2">
    <path d="M 39.83774 169.291385 
L 266.82351 169.291385 
L 266.82351 16.50774 
L 39.83774 16.50774 
z
" style="fill: #ffffff"/>
   </g>
   <g id="matplotlib.axis_1">
    <g id="xtick_1">
     <g id="line2d_1">
      <defs>
       <path id="m0222ed650e" d="M 0 0 
L 0 3.5 
" style="stroke: #000000; stroke-width: 0.8"/>
      </defs>
      <g>
       <use xlink:href="#m0222ed650e" x="44.954905" y="169.291385" style="stroke: #000000; stroke-width: 0.8"/>
      </g>
     </g>
    </g>
    <g id="xtick_2">
     <g id="line2d_2">
      <g>
       <use xlink:href="#m0222ed650e" x="78.237276" y="169.291385" style="stroke: #000000; stroke-width: 0.8"/>
      </g>
     </g>
    </g>
    <g id="xtick_3">
     <g id="line2d_3">
      <g>
       <use xlink:href="#m0222ed650e" x="111.519646" y="169.291385" style="stroke: #000000; stroke-width: 0.8"/>
      </g>
     </g>
    </g>
    <g id="xtick_4">
     <g id="line2d_4">
      <g>
       <use xlink:href="#m0222ed650e" x="144.802017" y="169.291385" style="stroke: #000000; stroke-width: 0.8"/>
      </g>
     </g>
    </g>
    <g id="xtick_5">
     <g id="line2d_5">
      <g>
       <use xlink:href="#m0222ed650e" x="178.084388" y="169.291385" style="stroke: #000000; stroke-width: 0.8"/>
      </g>
     </g>
    </g>
    <g id="xtick_6">
     <g id="line2d_6">
      <g>
       <use xlink:href="#m0222ed650e" x="211.366759" y="169.291385" style="stroke: #000000; stroke-width: 0.8"/>
      </g>
     </g>
    </g>
    <g id="xtick_7">
     <g id="line2d_7">
      <g>
       <use xlink:href="#m0222ed650e" x="244.64913" y="169.291385" style="stroke: #000000; stroke-width: 0.8"/>
      </g>
     </g>
    </g>
   </g>
   <g id="matplotlib.axis_2">
    <g id="ytick_1">
     <g id="line2d_8">
      <defs>
       <path id="m702857198b" d="M 0 0 
L -3.5 0 
" style="stroke: #000000; stroke-width: 0.8"/>
      </defs>
      <g>
       <use xlink:href="#m702857198b" x="39.83774" y="160.087159" style="stroke: #000000; stroke-width: 0.8"/>
      </g>
     </g>
     <g id="text_1">
      <text style="font: 8px 'Arial', 'Microsoft YaHei'; text-anchor: end" x="32.83774" y="162.950284" transform="rotate(-0 32.83774 162.950284)">1150</text>
     </g>
    </g>
    <g id="ytick_2">
     <g id="line2d_9">
      <g>
       <use xlink:href="#m702857198b" x="39.83774" y="141.66243" style="stroke: #000000; stroke-width: 0.8"/>
      </g>
     </g>
     <g id="text_2">
      <text style="font: 8px 'Arial', 'Microsoft YaHei'; text-anchor: end" x="32.83774" y="144.525555" transform="rotate(-0 32.83774 144.525555)">1200</text>
     </g>
    </g>
    <g id="ytick_3">
     <g id="line2d_10">
      <g>
       <use xlink:href="#m702857198b" x="39.83774" y="123.2377" style="stroke: #000000; stroke-width: 0.8"/>
      </g>
     </g>
     <g id="text_3">
      <text style="font: 8px 'Arial', 'Microsoft YaHei'; text-anchor: end" x="32.83774" y="126.100825" transform="rotate(-0 32.83774 126.100825)">1250</text>
     </g>
    </g>
    <g id="ytick_4">
     <g id="line2d_11">
      <g>
       <use xlink:href="#m702857198b" x="39.83774" y="104.812971" style="stroke: #000000; stroke-width: 0.8"/>
      </g>
     </g>
     <g id="text_4">
      <text style="font: 8px 'Arial', 'Microsoft YaHei'; text-anchor: end" x="32.83774" y="107.676096" transform="rotate(-0 32.83774 107.676096)">1300</text>
     </g>
    </g>
    <g id="ytick_5">
     <g id="line2d_12">
      <g>
       <use xlink:href="#m702857198b" x="39.83774" y="86.388241" style="stroke: #000000; stroke-width: 0.8"/>
      </g>
     </g>
     <g id="text_5">
      <text style="font: 8px 'Arial', 'Microsoft YaHei'; text-anchor: end" x="32.83774" y="89.251366" transform="rotate(-0 32.83774 89.251366)">1350</text>
     </g>
    </g>
    <g id="ytick_6">
     <g id="line2d_13">
      <g>
       <use xlink:href="#m702857198b" x="39.83774" y="67.963512" style="stroke: #000000; stroke-width: 0.8"/>
      </g>
     </g>
     <g id="text_6">
      <text style="font: 8px 'Arial', 'Microsoft YaHei'; text-anchor: end" x="32.83774" y="70.826637" transform="rotate(-0 32.83774 70.826637)">1400</text>
     </g>
    </g>
    <g id="ytick_7">
     <g id="line2d_14">
      <g>
       <use xlink:href="#m702857198b" x="39.83774" y="49.538782" style="stroke: #000000; stroke-width: 0.8"/>
      </g>
     </g>
     <g id="text_7">
      <text style="font: 8px 'Arial', 'Microsoft YaHei'; text-anchor: end" x="32.83774" y="52.401907" transform="rotate(-0 32.83774 52.401907)">1450</text>
     </g>
    </g>
    <g id="ytick_8">
     <g id="line2d_15">
      <g>
       <use xlink:href="#m702857198b" x="39.83774" y="31.114053" style="stroke: #000000; stroke-width: 0.8"/>
      </g>
     </g>
     <g id="text_8">
      <text style="font: 8px 'Arial', 'Microsoft YaHei'; text-anchor: end" x="32.83774" y="33.977178" transform="rotate(-0 32.83774 33.977178)">1500</text>
     </g>
    </g>
    <g id="text_9">
     <text style="font: 8px 'Arial', 'Microsoft YaHei'; text-anchor: middle" x="9.45274" y="92.899562" transform="rotate(-90 9.45274 92.899562)">1秒原始均值（mV）</text>
    </g>
   </g>
   <g id="line2d_16">
    <path d="M 52.485041 74.911582 
L 56.478925 78.812668 
L 61.471281 83.528495 
L 64.466695 85.933077 
L 66.130813 87.047512 
L 70.457521 89.709899 
L 78.778114 94.140932 
L 86.433059 97.185949 
L 87.098707 97.350978 
L 92.091062 98.85957 
L 92.75671 98.950097 
L 93.422357 99.182036 
L 94.420828 99.503378 
L 95.4193 99.690336 
L 97.749065 100.246429 
L 98.414713 100.410052 
L 99.08036 100.672636 
L 100.744479 100.915259 
L 101.410126 101.188245 
L 101.74295 101.167721 
L 103.074245 101.466854 
L 104.738363 101.792413 
L 105.404011 101.953787 
L 106.069658 102.131466 
L 106.735306 102.272317 
L 107.733777 102.414011 
L 109.730719 102.760093 
L 111.727661 103.130634 
L 113.058956 103.280482 
L 114.057427 103.454788 
L 115.388722 103.640058 
L 116.05437 103.706688 
L 117.052841 103.79834 
L 118.051312 103.827297 
L 119.382607 104.118276 
L 119.71543 104.327162 
L 122.37802 104.886067 
L 123.043667 104.769113 
L 123.709315 105.028042 
L 124.042139 104.925426 
L 124.707786 105.040412 
L 125.04061 104.939483 
L 126.039081 105.11154 
L 126.371905 105.056718 
L 126.704728 105.12616 
L 127.037552 105.311993 
L 127.703199 105.354725 
L 128.368847 105.47674 
L 130.365789 105.595381 
L 130.698613 105.817762 
L 132.362731 105.754224 
L 132.695555 105.911381 
L 133.028379 105.939214 
L 133.694026 105.81495 
L 134.359674 105.815794 
L 135.025321 106.151193 
L 135.690968 106.189147 
L 136.68944 106.334214 
L 137.687911 106.45173 
L 138.353558 106.500367 
L 140.3505 106.71825 
L 141.681795 106.867535 
L 148.005446 107.412382 
L 148.338269 107.411539 
L 149.003917 107.608055 
L 151.000859 107.667094 
L 151.99933 107.874294 
L 152.997801 107.868109 
L 153.663449 107.979159 
L 153.996272 107.913091 
L 154.329096 108.055348 
L 154.66192 107.972693 
L 155.660391 108.151216 
L 155.993215 108.099205 
L 157.32451 108.283633 
L 158.655804 108.304999 
L 169.306163 109.036804 
L 169.638987 109.125363 
L 170.304634 109.044395 
L 173.632871 109.298544 
L 174.298519 109.307259 
L 175.629814 109.494779 
L 176.295461 109.441082 
L 177.293932 109.512772 
L 179.623698 109.641534 
L 179.956522 109.579964 
L 180.954993 109.686797 
L 181.953464 109.728125 
L 182.951935 109.706758 
L 184.948877 109.436583 
L 185.614525 109.794754 
L 186.280172 109.863634 
L 186.612996 109.775356 
L 188.609938 109.922392 
L 188.942762 109.859417 
L 189.608409 109.944883 
L 190.274057 109.937011 
L 194.267941 110.156581 
L 194.933589 110.183008 
L 198.927473 110.261446 
L 201.922887 110.419727 
L 210.576303 110.596844 
L 210.909127 110.438282 
L 211.24195 110.438563 
L 211.574774 110.65757 
L 212.240422 110.382335 
L 212.573245 110.469207 
L 212.906069 110.287029 
L 214.237364 110.197908 
L 214.570188 110.23783 
L 215.235835 110.082923 
L 217.565601 110.150115 
L 218.896896 110.088545 
L 219.562543 110.193129 
L 220.228191 110.552986 
L 220.893838 110.633673 
L 221.226662 110.509129 
L 221.892309 110.709019 
L 222.225133 110.441374 
L 222.557957 110.527684 
L 223.556428 110.380929 
L 224.554899 110.280001 
L 224.887723 110.32414 
L 225.55337 110.720827 
L 226.219017 110.801795 
L 226.551841 110.594595 
L 227.217489 110.797297 
L 227.550312 110.859428 
L 228.548783 110.670784 
L 229.214431 110.581382 
L 230.545726 110.579695 
L 231.211373 110.546521 
L 232.875492 111.046386 
L 233.208315 110.951923 
L 233.873963 111.034016 
L 236.536552 111.336521 
L 237.2022 111.284792 
L 237.535024 111.296038 
L 238.200671 111.193703 
L 238.533495 111.216756 
L 239.199142 111.561151 
L 239.531966 111.655614 
L 240.863261 111.479621 
L 241.528908 111.561433 
L 242.194555 111.434358 
L 243.193027 111.518418 
L 243.52585 111.772849 
L 246.521264 111.946593 
L 247.186911 111.749796 
L 248.185382 111.697223 
L 250.515148 111.488055 
L 252.179267 111.3756 
L 253.177738 111.418333 
L 253.510562 111.361262 
L 253.510562 111.361262 
" clip-path="url(#p79f44d5910)" style="fill: none; stroke: #477da5; stroke-linecap: square"/>
   </g>
   <g id="line2d_17">
    <path d="M 50.155275 25.956275 
L 50.488099 23.452451 
L 51.48657 24.670908 
L 51.819394 25.071812 
L 52.152217 25.295318 
L 52.485041 25.731645 
L 53.150688 26.091222 
L 53.816336 26.50028 
L 54.14916 26.741497 
L 54.814807 26.95713 
L 55.147631 27.172202 
L 55.480454 27.163768 
L 55.813278 27.424665 
L 56.478925 27.511536 
L 56.811749 27.641985 
L 57.144573 27.609935 
L 57.477397 27.894448 
L 58.143044 27.921157 
L 59.474339 28.216352 
L 60.139986 28.259929 
L 60.47281 28.366481 
L 60.805634 28.289167 
L 61.138457 28.575929 
L 61.804105 28.50705 
L 66.463637 29.046275 
L 66.79646 29.033623 
L 67.129284 29.183471 
L 67.462108 29.089289 
L 68.460579 29.234357 
L 70.124698 29.218613 
L 70.457521 29.554293 
L 71.123169 29.389827 
L 72.454464 29.518589 
L 72.787287 29.397137 
L 73.120111 29.729724 
L 73.452935 29.616987 
L 75.782701 29.569756 
L 76.115524 29.847521 
L 77.113995 29.771614 
L 78.44529 29.894471 
L 78.778114 29.757838 
L 79.110938 30.081148 
L 80.109409 29.970098 
L 81.440704 30.071308 
L 82.106351 29.881539 
L 82.439175 30.220874 
L 82.771999 30.226497 
L 83.104822 30.091831 
L 84.436117 30.13119 
L 85.101765 30.095486 
L 85.767412 30.220593 
L 86.765883 30.093518 
L 87.098707 30.458155 
L 88.430002 30.244208 
L 90.426944 30.342607 
L 91.092591 30.267262 
L 91.425415 30.133159 
L 91.758239 30.198102 
L 92.091062 30.511009 
L 92.423886 30.579326 
L 93.089534 30.334454 
L 93.755181 30.346262 
L 94.420828 30.323771 
L 95.4193 30.377749 
L 96.750594 30.387027 
L 97.416242 30.465465 
L 99.413184 30.311963 
L 99.746008 30.593664 
L 100.078831 30.668166 
L 100.744479 30.417952 
L 101.74295 30.423575 
L 102.408597 30.411205 
L 104.40554 30.421607 
L 105.404011 30.434821 
L 106.069658 30.518038 
L 107.068129 30.473056 
L 108.732248 30.32377 
L 109.397895 30.274852 
L 109.730719 30.415141 
L 110.063543 30.676881 
L 110.396366 30.778091 
L 111.394838 30.637241 
L 113.724604 30.531251 
L 114.723075 30.569205 
L 116.05437 30.494422 
L 117.385664 30.50117 
L 119.71543 30.512415 
L 122.37802 30.651579 
L 124.042139 30.727487 
L 124.707786 30.565269 
L 125.373433 30.327145 
L 126.371905 30.299873 
L 129.700142 30.509041 
L 131.697084 30.482614 
L 133.361202 30.454219 
L 135.025321 30.500326 
L 135.690968 30.516351 
L 136.356616 30.472493 
L 138.020734 30.545308 
L 138.353558 30.720739 
L 138.686382 30.765441 
L 139.684853 30.282162 
L 140.683324 30.516914 
L 141.681795 30.47671 
L 142.347443 30.465465 
L 143.345914 30.470525 
L 144.344385 30.525066 
L 145.010032 30.49639 
L 145.67568 30.781747 
L 146.008503 30.675476 
L 146.341327 30.393493 
L 146.674151 30.305215 
L 147.672622 30.501732 
L 149.003917 30.498358 
L 149.669564 30.434258 
L 151.666506 30.511009 
L 151.99933 30.518038 
L 152.664978 30.781184 
L 153.663449 30.304934 
L 154.329096 30.482614 
L 154.994744 30.51607 
L 155.660391 30.444379 
L 157.990157 30.610533 
L 158.322981 30.708369 
L 158.988628 30.283849 
L 159.654275 30.482895 
L 160.652747 30.481771 
L 161.318394 30.497234 
L 162.982513 30.536593 
L 163.315336 30.784558 
L 163.980984 30.348792 
L 164.313807 30.532938 
L 165.312279 30.616999 
L 165.977926 30.505949 
L 166.643573 30.521412 
L 167.309221 30.543621 
L 167.974868 30.583543 
L 168.307692 30.79243 
L 168.973339 30.358351 
L 169.638987 30.566956 
L 170.304634 30.590853 
L 170.637458 30.5037 
L 172.301576 30.584387 
L 172.967224 30.631056 
L 173.300048 30.789899 
L 173.632871 30.480365 
L 173.965695 30.419358 
L 174.631342 30.590009 
L 176.961108 30.549244 
L 177.293932 30.70359 
L 177.95958 30.38534 
L 178.625227 30.584949 
L 179.623698 30.505949 
L 180.954993 30.522536 
L 181.287817 30.729173 
L 181.62064 30.362287 
L 182.619111 30.544465 
L 182.951935 30.440163 
L 184.616054 30.677163 
L 185.281701 30.371564 
L 185.947349 30.529565 
L 186.280172 30.425262 
L 187.944291 30.653266 
L 188.277115 30.295938 
L 188.942762 30.514945 
L 189.275586 30.41486 
L 190.939704 30.558241 
L 191.272528 30.308589 
L 191.605352 30.458155 
L 193.602294 30.450564 
L 193.935118 30.302966 
L 194.267941 30.44691 
L 195.266412 30.379717 
L 196.264884 30.357788 
L 196.597707 30.27682 
L 196.930531 30.398835 
L 198.59465 30.389276 
L 198.927473 30.584387 
L 199.260297 30.227059 
L 199.925944 30.435383 
L 200.258768 30.328269 
L 201.590063 30.53828 
L 201.922887 30.218906 
L 202.25571 30.381966 
L 203.254181 30.329956 
L 204.252653 30.31618 
L 204.585476 30.266137 
L 204.9183 30.381123 
L 205.583947 30.309995 
L 206.249595 30.310557 
L 206.582419 30.408675 
L 207.248066 30.223404 
L 207.58089 30.31365 
L 207.913713 30.229027 
L 209.245008 30.446348 
L 209.577832 30.123037 
L 209.910656 30.309995 
L 210.909127 30.204286 
L 211.574774 30.381404 
L 211.907598 30.113198 
L 212.573245 30.246457 
L 213.238893 30.201194 
L 213.571716 30.209628 
L 213.90454 30.374938 
L 214.237364 30.083397 
L 214.570188 30.211596 
L 215.901482 30.19782 
L 216.234306 30.370159 
L 216.56713 30.015643 
L 216.899954 30.19051 
L 218.231248 30.204287 
L 218.564072 30.342607 
L 218.896896 30.061468 
L 219.562543 30.197539 
L 219.895367 30.110667 
L 220.893838 30.289472 
L 221.226662 30.073276 
L 221.892309 30.154244 
L 222.557957 30.120226 
L 223.223604 30.326301 
L 223.556428 30.024077 
L 223.889251 30.172237 
L 225.220546 30.148621 
L 225.55337 30.302123 
L 225.886194 29.976564 
L 226.219017 30.143561 
L 226.884665 30.113479 
L 227.550312 30.126692 
L 227.883136 30.266137 
L 228.21596 29.983311 
L 228.548783 30.127536 
L 229.214431 30.125568 
L 229.547255 30.114322 
L 229.880078 30.243084 
L 230.212902 30.03982 
L 230.878549 30.116852 
L 231.87702 30.169426 
L 232.209844 30.172237 
L 232.542668 30.058375 
L 232.875492 30.11882 
L 233.541139 30.071027 
L 233.873963 30.092393 
L 234.206786 30.236899 
L 234.53961 29.960258 
L 234.872434 30.10645 
L 235.538081 30.062311 
L 236.203729 30.088176 
L 236.536552 30.20513 
L 236.869376 29.932144 
L 237.2022 30.095486 
L 237.535024 30.010863 
L 238.533495 30.201756 
L 238.866318 29.932707 
L 239.199142 30.088457 
L 239.531966 30.012269 
L 240.530437 30.196415 
L 240.863261 29.993151 
L 241.196084 30.100827 
L 242.194555 30.077774 
L 242.527379 30.172237 
L 242.860203 30.049098 
L 244.857145 30.247863 
L 245.189969 29.986685 
L 245.522793 30.134564 
L 246.18844 30.066248 
L 246.854087 30.2175 
L 247.186911 29.948169 
L 247.519735 30.092112 
L 248.185382 30.041507 
L 248.518206 30.042351 
L 248.85103 30.178703 
L 249.183853 29.915276 
L 249.516677 30.081991 
L 250.182325 30.033073 
L 250.515148 30.05444 
L 250.847972 30.188262 
L 251.180796 29.918368 
L 251.513619 30.053315 
L 252.51209 30.020984 
L 253.177738 30.072433 
L 253.510562 29.994838 
L 254.176209 30.003554 
L 256.505975 30.007209 
L 256.505975 30.007209 
" clip-path="url(#p79f44d5910)" style="fill: none; stroke: #bc7966; stroke-linecap: square"/>
   </g>
   <g id="patch_3">
    <path d="M 39.83774 169.291385 
L 39.83774 16.50774 
" style="fill: none; stroke: #000000; stroke-width: 0.7; stroke-linejoin: miter; stroke-linecap: square"/>
   </g>
   <g id="patch_4">
    <path d="M 39.83774 169.291385 
L 266.82351 169.291385 
" style="fill: none; stroke: #000000; stroke-width: 0.7; stroke-linejoin: miter; stroke-linecap: square"/>
   </g>
   <g id="text_10">
    <text style="font: 700 9.6px 'Arial', 'Microsoft YaHei'; text-anchor: start" x="39.83774" y="10.50774" transform="rotate(-0 39.83774 10.50774)">a  Ut1 · 开机趋势</text>
   </g>
   <g id="legend_1">
    <g id="line2d_18">
     <path d="M 47.03774 145.841385 
L 55.03774 145.841385 
L 63.03774 145.841385 
" style="fill: none; stroke: #477da5; stroke-linecap: square"/>
    </g>
    <g id="text_11">
     <text style="font: 8px 'Arial', 'Microsoft YaHei'; text-anchor: start" x="69.43774" y="148.641385" transform="rotate(-0 69.43774 148.641385)">论文腕表</text>
    </g>
    <g id="line2d_19">
     <path d="M 47.03774 157.701385 
L 55.03774 157.701385 
L 63.03774 157.701385 
" style="fill: none; stroke: #bc7966; stroke-linecap: square"/>
    </g>
    <g id="text_12">
     <text style="font: 8px 'Arial', 'Microsoft YaHei'; text-anchor: start" x="69.43774" y="160.501385" transform="rotate(-0 69.43774 160.501385)">项目腕表</text>
    </g>
   </g>
  </g>
  <g id="axes_2">
   <g id="patch_5">
    <path d="M 288.41399 169.291385 
L 515.39976 169.291385 
L 515.39976 16.50774 
L 288.41399 16.50774 
z
" style="fill: #ffffff"/>
   </g>
   <g id="matplotlib.axis_3">
    <g id="xtick_8">
     <g id="line2d_20">
      <g>
       <use xlink:href="#m0222ed650e" x="293.531155" y="169.291385" style="stroke: #000000; stroke-width: 0.8"/>
      </g>
     </g>
    </g>
    <g id="xtick_9">
     <g id="line2d_21">
      <g>
       <use xlink:href="#m0222ed650e" x="326.813526" y="169.291385" style="stroke: #000000; stroke-width: 0.8"/>
      </g>
     </g>
    </g>
    <g id="xtick_10">
     <g id="line2d_22">
      <g>
       <use xlink:href="#m0222ed650e" x="360.095896" y="169.291385" style="stroke: #000000; stroke-width: 0.8"/>
      </g>
     </g>
    </g>
    <g id="xtick_11">
     <g id="line2d_23">
      <g>
       <use xlink:href="#m0222ed650e" x="393.378267" y="169.291385" style="stroke: #000000; stroke-width: 0.8"/>
      </g>
     </g>
    </g>
    <g id="xtick_12">
     <g id="line2d_24">
      <g>
       <use xlink:href="#m0222ed650e" x="426.660638" y="169.291385" style="stroke: #000000; stroke-width: 0.8"/>
      </g>
     </g>
    </g>
    <g id="xtick_13">
     <g id="line2d_25">
      <g>
       <use xlink:href="#m0222ed650e" x="459.943009" y="169.291385" style="stroke: #000000; stroke-width: 0.8"/>
      </g>
     </g>
    </g>
    <g id="xtick_14">
     <g id="line2d_26">
      <g>
       <use xlink:href="#m0222ed650e" x="493.22538" y="169.291385" style="stroke: #000000; stroke-width: 0.8"/>
      </g>
     </g>
    </g>
   </g>
   <g id="matplotlib.axis_4">
    <g id="ytick_9">
     <g id="line2d_27">
      <g>
       <use xlink:href="#m702857198b" x="288.41399" y="160.087159" style="stroke: #000000; stroke-width: 0.8"/>
      </g>
     </g>
    </g>
    <g id="ytick_10">
     <g id="line2d_28">
      <g>
       <use xlink:href="#m702857198b" x="288.41399" y="141.66243" style="stroke: #000000; stroke-width: 0.8"/>
      </g>
     </g>
    </g>
    <g id="ytick_11">
     <g id="line2d_29">
      <g>
       <use xlink:href="#m702857198b" x="288.41399" y="123.2377" style="stroke: #000000; stroke-width: 0.8"/>
      </g>
     </g>
    </g>
    <g id="ytick_12">
     <g id="line2d_30">
      <g>
       <use xlink:href="#m702857198b" x="288.41399" y="104.812971" style="stroke: #000000; stroke-width: 0.8"/>
      </g>
     </g>
    </g>
    <g id="ytick_13">
     <g id="line2d_31">
      <g>
       <use xlink:href="#m702857198b" x="288.41399" y="86.388241" style="stroke: #000000; stroke-width: 0.8"/>
      </g>
     </g>
    </g>
    <g id="ytick_14">
     <g id="line2d_32">
      <g>
       <use xlink:href="#m702857198b" x="288.41399" y="67.963512" style="stroke: #000000; stroke-width: 0.8"/>
      </g>
     </g>
    </g>
    <g id="ytick_15">
     <g id="line2d_33">
      <g>
       <use xlink:href="#m702857198b" x="288.41399" y="49.538782" style="stroke: #000000; stroke-width: 0.8"/>
      </g>
     </g>
    </g>
    <g id="ytick_16">
     <g id="line2d_34">
      <g>
       <use xlink:href="#m702857198b" x="288.41399" y="31.114053" style="stroke: #000000; stroke-width: 0.8"/>
      </g>
     </g>
    </g>
    <g id="text_13">
     <text style="font: 8px 'Arial', 'Microsoft YaHei'; text-anchor: middle" x="279.32399" y="92.899562" transform="rotate(-90 279.32399 92.899562)">1秒原始均值（mV）</text>
    </g>
   </g>
   <g id="line2d_35">
    <path d="M 301.061291 104.483475 
L 308.716236 114.235627 
L 314.041416 119.884836 
L 321.030714 125.854824 
L 321.696361 126.273721 
L 323.027656 127.337832 
L 324.026127 128.035057 
L 325.024598 128.796663 
L 327.02154 130.035923 
L 329.68413 131.526523 
L 330.349777 132.017673 
L 332.34672 133.087125 
L 332.679543 133.182151 
L 333.345191 133.617917 
L 334.343662 134.052276 
L 335.009309 134.491697 
L 335.674957 134.765245 
L 337.006252 135.376441 
L 337.339075 135.442509 
L 337.671899 135.726459 
L 339.336018 136.342435 
L 339.668841 136.618514 
L 340.334489 136.83977 
L 340.667312 137.063557 
L 341.665784 137.357628 
L 342.664255 138.00706 
L 343.662726 138.387159 
L 345.659668 138.990203 
L 346.658139 139.465609 
L 347.65661 140.061624 
L 348.322258 140.336859 
L 348.987905 140.603941 
L 349.320729 140.61603 
L 349.653553 140.884237 
L 349.986376 141.006813 
L 350.3192 140.998942 
L 350.984847 141.257027 
L 352.648966 141.723155 
L 352.98179 141.955939 
L 353.647437 142.178882 
L 355.311556 142.796263 
L 356.975674 143.000933 
L 359.971088 144.24666 
L 361.302382 144.404097 
L 361.96803 144.670617 
L 362.300854 144.738372 
L 362.966501 145.071241 
L 363.632148 145.323141 
L 363.964972 145.479736 
L 364.297796 145.460056 
L 365.629091 145.77465 
L 366.294738 145.866864 
L 367.626033 146.079968 
L 368.624504 146.696787 
L 369.290151 146.923104 
L 371.287094 147.55426 
L 371.952741 147.560727 
L 372.285565 147.807567 
L 373.284036 148.038383 
L 373.949683 147.908496 
L 374.282507 147.920585 
L 374.615331 148.098546 
L 374.948155 148.0575 
L 375.280978 148.182044 
L 375.613802 148.433664 
L 376.612273 148.828945 
L 376.945097 149.029679 
L 378.276392 149.131732 
L 378.609215 149.290576 
L 378.942039 149.301821 
L 379.274863 149.523359 
L 380.273334 149.619227 
L 381.271805 149.677142 
L 381.937452 150.010854 
L 382.6031 150.197249 
L 382.935924 150.129776 
L 383.601571 150.376616 
L 383.934395 150.435374 
L 384.932866 150.838527 
L 386.596984 151.267827 
L 387.595455 151.459283 
L 388.261103 151.616158 
L 388.92675 151.682507 
L 390.258045 151.929066 
L 391.922164 152.298764 
L 396.581696 153.046031 
L 397.247343 153.258854 
L 397.91299 153.276284 
L 398.245814 153.304961 
L 398.578638 153.46521 
L 399.244285 153.529591 
L 400.242756 153.790206 
L 400.908404 153.750003 
L 402.239699 153.996843 
L 402.572522 153.96648 
L 403.903817 154.279108 
L 404.569465 154.267018 
L 405.90076 154.597638 
L 406.233583 154.567837 
L 406.899231 154.81805 
L 407.564878 154.93388 
L 408.563349 155.100877 
L 409.56182 155.136863 
L 410.893115 155.342375 
L 411.225939 155.327194 
L 411.891586 155.542546 
L 412.890057 155.630542 
L 414.221352 155.842803 
L 415.552647 155.945418 
L 415.885471 156.041287 
L 416.551118 156.025261 
L 418.215237 156.31849 
L 418.880884 156.275195 
L 419.546532 156.394116 
L 420.545003 156.583885 
L 421.876298 156.757348 
L 422.541945 156.718551 
L 423.207592 156.888078 
L 424.538887 156.983384 
L 425.204535 157.202954 
L 426.203006 157.410996 
L 426.868653 157.322438 
L 427.867124 157.596267 
L 428.199948 157.499555 
L 429.198419 157.684545 
L 429.864067 157.766075 
L 431.528185 158.022192 
L 432.526656 157.520079 
L 433.525127 157.509676 
L 433.857951 157.775071 
L 434.856422 157.890338 
L 435.189246 157.859131 
L 436.187717 158.181317 
L 437.186188 158.247947 
L 437.851836 158.33257 
L 438.184659 158.390766 
L 438.517483 158.242606 
L 440.514425 158.713795 
L 444.841134 159.118916 
L 445.173957 159.043852 
L 446.172428 159.201009 
L 446.505252 159.108233 
L 446.838076 159.229685 
L 447.503723 159.249084 
L 448.169371 159.296877 
L 451.830431 159.44813 
L 452.496079 159.565084 
L 453.827374 159.679507 
L 454.160197 159.624404 
L 454.825845 159.763849 
L 455.491492 159.715212 
L 456.15714 159.86534 
L 456.489963 159.787465 
L 457.488435 159.974141 
L 457.821258 159.898233 
L 459.152553 160.109931 
L 459.8182 159.86281 
L 460.151024 160.057077 
L 460.483848 159.956148 
L 460.816672 159.623842 
L 461.149495 159.688504 
L 461.815143 159.410176 
L 462.48079 159.39893 
L 463.146438 159.43323 
L 463.812085 159.300251 
L 464.144909 159.241774 
L 464.477732 159.377845 
L 465.14338 159.298564 
L 465.809027 159.525443 
L 467.473146 159.211973 
L 467.80597 159.198478 
L 468.138793 159.368568 
L 468.471617 159.679789 
L 469.470088 159.958678 
L 469.802912 159.836101 
L 470.135735 159.878554 
L 470.468559 160.081817 
L 470.801383 159.739108 
L 473.131149 159.509981 
L 473.463973 159.655892 
L 473.796796 160.000006 
L 474.462444 160.310665 
L 474.795267 160.306166 
L 475.460915 160.504089 
L 475.793739 160.474288 
L 476.126562 160.630039 
L 478.123505 160.030087 
L 479.787623 159.941248 
L 480.120447 160.06776 
L 480.45327 160.384042 
L 481.118918 160.583651 
L 481.451742 160.747555 
L 481.784565 160.70679 
L 483.11586 161.192879 
L 483.448684 161.296619 
L 484.447155 161.263726 
L 484.779979 161.457712 
L 485.112802 161.495103 
L 485.77845 161.72367 
L 486.111274 161.655353 
L 486.444097 161.43016 
L 487.109745 161.353972 
L 487.775392 161.820662 
L 488.44104 161.850463 
L 489.439511 161.740819 
L 490.105158 161.781584 
L 490.770805 161.578602 
L 491.769277 161.637641 
L 492.434924 162.013524 
L 493.100571 162.138349 
L 493.433395 162.218474 
L 493.766219 162.089431 
L 494.431866 162.322496 
L 494.76469 162.346674 
L 495.097514 162.22972 
L 495.430337 161.984285 
L 496.428809 161.693869 
L 497.094456 161.734072 
L 498.758575 161.361843 
L 500.755517 161.130466 
L 501.08834 161.23252 
L 501.753988 161.722826 
L 502.086812 161.561452 
L 502.086812 161.561452 
" clip-path="url(#p25a11960bb)" style="fill: none; stroke: #477da5; stroke-linecap: square"/>
   </g>
   <g id="line2d_36">
    <path d="M 298.731525 80.552356 
L 299.397172 81.404208 
L 300.728467 82.895932 
L 302.392586 84.157684 
L 303.391057 84.642649 
L 303.723881 85.030058 
L 304.056704 85.069136 
L 307.384941 86.572388 
L 308.050589 86.756252 
L 308.383413 86.94321 
L 308.716236 86.943772 
L 309.04906 87.292385 
L 309.714707 87.394438 
L 310.047531 87.474 
L 310.380355 87.676701 
L 310.713179 87.679513 
L 311.046002 87.978363 
L 311.71165 88.091101 
L 312.710121 88.459674 
L 313.042945 88.413005 
L 313.375768 88.797322 
L 314.041416 88.823468 
L 315.039887 89.171518 
L 315.37271 89.124005 
L 315.705534 89.525753 
L 316.038358 89.447878 
L 317.702476 89.780465 
L 318.0353 90.056825 
L 320.365066 90.409654 
L 320.69789 90.753206 
L 321.363537 90.769232 
L 323.36048 91.039968 
L 323.693303 91.380709 
L 324.691774 91.421755 
L 326.023069 91.639638 
L 326.355893 91.582848 
L 326.688717 91.991061 
L 327.02154 91.889289 
L 328.352835 92.016645 
L 328.685659 92.171834 
L 329.351306 92.088335 
L 329.68413 92.40518 
L 333.678015 92.811144 
L 334.010838 93.154977 
L 335.009309 93.135578 
L 335.674957 93.196586 
L 336.340604 93.27896 
L 337.006252 93.418123 
L 337.671899 93.472383 
L 338.004723 93.370611 
L 339.003194 93.79485 
L 339.336018 93.715007 
L 341.000136 93.934014 
L 344.328373 94.258167 
L 344.994021 94.219088 
L 345.992492 94.753815 
L 346.990963 94.621399 
L 347.65661 94.703491 
L 348.655081 94.82157 
L 350.652024 95.036079 
L 351.983319 95.154438 
L 353.980261 95.284887 
L 354.313085 95.566588 
L 354.645908 95.647275 
L 355.311556 95.49546 
L 369.622975 96.743155 
L 376.612273 97.235148 
L 377.943568 97.333828 
L 379.607686 97.617779 
L 380.606158 97.419013 
L 381.604629 97.433914 
L 382.6031 97.439817 
L 383.934395 97.706619 
L 384.932866 97.818512 
L 385.931337 97.795178 
L 387.262632 97.914099 
L 388.261103 97.988601 
L 389.925221 98.275082 
L 390.258045 98.019245 
L 390.590869 97.949242 
L 391.256516 98.153629 
L 392.587811 98.260743 
L 393.253459 98.237971 
L 394.584753 98.355769 
L 396.581696 98.572808 
L 397.247343 98.782257 
L 397.91299 98.398502 
L 399.244285 98.708599 
L 400.57558 98.734463 
L 401.574051 98.765951 
L 402.905346 98.896962 
L 403.23817 99.063396 
L 403.570994 99.080545 
L 403.903817 98.776353 
L 405.235112 99.039499 
L 405.90076 98.960499 
L 408.896173 99.38052 
L 409.228997 99.085043 
L 409.56182 99.024036 
L 410.227468 99.228143 
L 410.893115 99.254852 
L 411.558763 99.267783 
L 413.888529 99.538521 
L 414.221352 99.293367 
L 415.219823 99.530649 
L 418.215237 99.690898 
L 418.54806 99.900066 
L 418.880884 99.782549 
L 419.213708 99.544143 
L 419.879355 99.731101 
L 420.545003 99.81235 
L 421.21065 99.773272 
L 422.541945 99.903439 
L 422.874769 99.914685 
L 423.207592 100.110358 
L 423.87324 99.783393 
L 424.538887 99.997902 
L 424.871711 100.035575 
L 425.204535 99.960792 
L 426.868653 100.137347 
L 427.201477 100.355792 
L 427.867124 100.019269 
L 428.532772 100.243055 
L 431.195361 100.483991 
L 431.528185 100.198635 
L 432.193833 100.440696 
L 432.85948 100.394027 
L 434.523599 100.697657 
L 434.856422 100.37744 
L 435.52207 100.588013 
L 436.187717 100.562992 
L 437.186188 100.652956 
L 437.519012 100.815173 
L 437.851836 100.516885 
L 438.517483 100.734486 
L 438.850307 100.653237 
L 440.181602 100.84891 
L 442.178544 100.837946 
L 442.844191 101.019561 
L 443.177015 100.846099 
L 445.839605 101.05133 
L 446.172428 100.912448 
L 446.838076 101.081974 
L 447.503723 101.099405 
L 448.169371 101.166316 
L 448.502194 101.281864 
L 448.835018 101.028839 
L 449.167842 101.190494 
L 450.499137 101.23913 
L 450.83196 101.335843 
L 451.497608 101.217764 
L 451.830431 101.335281 
L 452.163255 101.266402 
L 453.49455 101.554288 
L 453.827374 101.286643 
L 454.493021 101.473601 
L 454.825845 101.395725 
L 456.15714 101.674334 
L 456.489963 101.380263 
L 457.155611 101.572843 
L 457.821258 101.568626 
L 461.149495 101.797192 
L 461.482319 101.625697 
L 461.815143 101.759801 
L 462.147966 101.682769 
L 463.146438 101.86073 
L 463.812085 101.754178 
L 464.144909 101.848921 
L 464.477732 101.785665 
L 465.476204 101.941979 
L 466.141851 101.823619 
L 466.474675 101.943946 
L 466.807498 101.866633 
L 468.138793 102.086203 
L 468.471617 101.883221 
L 468.804441 102.034474 
L 469.137264 101.966438 
L 470.468559 102.096886 
L 470.801383 102.009733 
L 471.134207 102.106164 
L 471.46703 102.038971 
L 472.465501 102.221993 
L 473.131149 102.108132 
L 473.463973 102.187131 
L 474.12962 102.177573 
L 477.125033 102.437064 
L 477.457857 102.227334 
L 477.790681 102.337541 
L 478.789152 102.347943 
L 479.121976 102.440719 
L 480.45327 102.403328 
L 483.448684 102.660289 
L 483.781508 102.475018 
L 484.447155 102.610527 
L 485.112802 102.590567 
L 485.77845 102.783428 
L 486.111274 102.53462 
L 486.444097 102.684185 
L 487.109745 102.66816 
L 487.775392 102.81857 
L 488.108216 102.603218 
L 488.44104 102.737321 
L 489.439511 102.74688 
L 489.772334 102.857367 
L 490.105158 102.739008 
L 492.1021 102.928777 
L 492.434924 102.786521 
L 492.767748 102.911628 
L 493.100571 102.847247 
L 494.099043 103.081435 
L 494.431866 102.844997 
L 494.76469 102.98641 
L 495.097514 102.91725 
L 496.095985 103.102802 
L 496.428809 102.884076 
L 496.761632 103.033361 
L 497.42728 103.03561 
L 497.760103 103.046012 
L 498.092927 103.190798 
L 498.425751 102.972072 
L 498.758575 103.09746 
L 499.091398 103.0432 
L 500.089869 103.24562 
L 500.422693 103.096055 
L 501.08834 103.182645 
L 501.753988 103.190798 
L 502.419635 103.280763 
L 502.752459 103.19361 
L 503.418106 103.230439 
L 504.083754 103.37888 
L 504.416578 103.215257 
L 504.749401 103.335022 
L 505.082225 103.284136 
L 505.082225 103.284136 
" clip-path="url(#p25a11960bb)" style="fill: none; stroke: #bc7966; stroke-linecap: square"/>
   </g>
   <g id="patch_6">
    <path d="M 288.41399 169.291385 
L 288.41399 16.50774 
" style="fill: none; stroke: #000000; stroke-width: 0.7; stroke-linejoin: miter; stroke-linecap: square"/>
   </g>
   <g id="patch_7">
    <path d="M 288.41399 169.291385 
L 515.39976 169.291385 
" style="fill: none; stroke: #000000; stroke-width: 0.7; stroke-linejoin: miter; stroke-linecap: square"/>
   </g>
   <g id="text_14">
    <text style="font: 700 9.6px 'Arial', 'Microsoft YaHei'; text-anchor: start" x="288.41399" y="10.50774" transform="rotate(-0 288.41399 10.50774)">b  Ut2 · 开机趋势</text>
   </g>
  </g>
  <g id="axes_3">
   <g id="patch_8">
    <path d="M 39.83774 345.05601 
L 266.82351 345.05601 
L 266.82351 192.272365 
L 39.83774 192.272365 
z
" style="fill: #ffffff"/>
   </g>
   <g id="patch_9">
    <path d="M 39.83774 204.046171 
L 39.83774 199.398741 
L 266.82351 199.398741 
L 266.82351 204.046171 
z
" clip-path="url(#pb85fac11ac)" style="fill: #e6e6e6; stroke: #e6e6e6; stroke-linejoin: miter"/>
   </g>
   <g id="matplotlib.axis_5">
    <g id="xtick_15">
     <g id="line2d_37">
      <g>
       <use xlink:href="#m0222ed650e" x="44.954905" y="345.05601" style="stroke: #000000; stroke-width: 0.8"/>
      </g>
     </g>
     <g id="text_15">
      <text style="font: 8px 'Arial', 'Microsoft YaHei'; text-anchor: middle" x="44.954905" y="357.78226" transform="rotate(-0 44.954905 357.78226)">0</text>
     </g>
    </g>
    <g id="xtick_16">
     <g id="line2d_38">
      <g>
       <use xlink:href="#m0222ed650e" x="78.237276" y="345.05601" style="stroke: #000000; stroke-width: 0.8"/>
      </g>
     </g>
     <g id="text_16">
      <text style="font: 8px 'Arial', 'Microsoft YaHei'; text-anchor: middle" x="78.237276" y="357.78226" transform="rotate(-0 78.237276 357.78226)">100</text>
     </g>
    </g>
    <g id="xtick_17">
     <g id="line2d_39">
      <g>
       <use xlink:href="#m0222ed650e" x="111.519646" y="345.05601" style="stroke: #000000; stroke-width: 0.8"/>
      </g>
     </g>
     <g id="text_17">
      <text style="font: 8px 'Arial', 'Microsoft YaHei'; text-anchor: middle" x="111.519646" y="357.78226" transform="rotate(-0 111.519646 357.78226)">200</text>
     </g>
    </g>
    <g id="xtick_18">
     <g id="line2d_40">
      <g>
       <use xlink:href="#m0222ed650e" x="144.802017" y="345.05601" style="stroke: #000000; stroke-width: 0.8"/>
      </g>
     </g>
     <g id="text_18">
      <text style="font: 8px 'Arial', 'Microsoft YaHei'; text-anchor: middle" x="144.802017" y="357.78226" transform="rotate(-0 144.802017 357.78226)">300</text>
     </g>
    </g>
    <g id="xtick_19">
     <g id="line2d_41">
      <g>
       <use xlink:href="#m0222ed650e" x="178.084388" y="345.05601" style="stroke: #000000; stroke-width: 0.8"/>
      </g>
     </g>
     <g id="text_19">
      <text style="font: 8px 'Arial', 'Microsoft YaHei'; text-anchor: middle" x="178.084388" y="357.78226" transform="rotate(-0 178.084388 357.78226)">400</text>
     </g>
    </g>
    <g id="xtick_20">
     <g id="line2d_42">
      <g>
       <use xlink:href="#m0222ed650e" x="211.366759" y="345.05601" style="stroke: #000000; stroke-width: 0.8"/>
      </g>
     </g>
     <g id="text_20">
      <text style="font: 8px 'Arial', 'Microsoft YaHei'; text-anchor: middle" x="211.366759" y="357.78226" transform="rotate(-0 211.366759 357.78226)">500</text>
     </g>
    </g>
    <g id="xtick_21">
     <g id="line2d_43">
      <g>
       <use xlink:href="#m0222ed650e" x="244.64913" y="345.05601" style="stroke: #000000; stroke-width: 0.8"/>
      </g>
     </g>
     <g id="text_21">
      <text style="font: 8px 'Arial', 'Microsoft YaHei'; text-anchor: middle" x="244.64913" y="357.78226" transform="rotate(-0 244.64913 357.78226)">600</text>
     </g>
    </g>
    <g id="text_22">
     <text style="font: 8px 'Arial', 'Microsoft YaHei'; text-anchor: middle" x="153.330625" y="369.80976" transform="rotate(-0 153.330625 369.80976)">MCU 上电后时间（秒）</text>
    </g>
   </g>
   <g id="matplotlib.axis_6">
    <g id="ytick_17">
     <g id="line2d_44">
      <g>
       <use xlink:href="#m702857198b" x="39.83774" y="341.145346" style="stroke: #000000; stroke-width: 0.8"/>
      </g>
     </g>
     <g id="text_23">
      <text style="font: 8px 'Arial', 'Microsoft YaHei'; text-anchor: end" x="32.83774" y="344.008471" transform="rotate(-0 32.83774 344.008471)">-60</text>
     </g>
    </g>
    <g id="ytick_18">
     <g id="line2d_45">
      <g>
       <use xlink:href="#m702857198b" x="39.83774" y="317.908197" style="stroke: #000000; stroke-width: 0.8"/>
      </g>
     </g>
     <g id="text_24">
      <text style="font: 8px 'Arial', 'Microsoft YaHei'; text-anchor: end" x="32.83774" y="320.771322" transform="rotate(-0 32.83774 320.771322)">-50</text>
     </g>
    </g>
    <g id="ytick_19">
     <g id="line2d_46">
      <g>
       <use xlink:href="#m702857198b" x="39.83774" y="294.671049" style="stroke: #000000; stroke-width: 0.8"/>
      </g>
     </g>
     <g id="text_25">
      <text style="font: 8px 'Arial', 'Microsoft YaHei'; text-anchor: end" x="32.83774" y="297.534174" transform="rotate(-0 32.83774 297.534174)">-40</text>
     </g>
    </g>
    <g id="ytick_20">
     <g id="line2d_47">
      <g>
       <use xlink:href="#m702857198b" x="39.83774" y="271.433901" style="stroke: #000000; stroke-width: 0.8"/>
      </g>
     </g>
     <g id="text_26">
      <text style="font: 8px 'Arial', 'Microsoft YaHei'; text-anchor: end" x="32.83774" y="274.297026" transform="rotate(-0 32.83774 274.297026)">-30</text>
     </g>
    </g>
    <g id="ytick_21">
     <g id="line2d_48">
      <g>
       <use xlink:href="#m702857198b" x="39.83774" y="248.196753" style="stroke: #000000; stroke-width: 0.8"/>
      </g>
     </g>
     <g id="text_27">
      <text style="font: 8px 'Arial', 'Microsoft YaHei'; text-anchor: end" x="32.83774" y="251.059878" transform="rotate(-0 32.83774 251.059878)">-20</text>
     </g>
    </g>
    <g id="ytick_22">
     <g id="line2d_49">
      <g>
       <use xlink:href="#m702857198b" x="39.83774" y="224.959604" style="stroke: #000000; stroke-width: 0.8"/>
      </g>
     </g>
     <g id="text_28">
      <text style="font: 8px 'Arial', 'Microsoft YaHei'; text-anchor: end" x="32.83774" y="227.822729" transform="rotate(-0 32.83774 227.822729)">-10</text>
     </g>
    </g>
    <g id="ytick_23">
     <g id="line2d_50">
      <g>
       <use xlink:href="#m702857198b" x="39.83774" y="201.722456" style="stroke: #000000; stroke-width: 0.8"/>
      </g>
     </g>
     <g id="text_29">
      <text style="font: 8px 'Arial', 'Microsoft YaHei'; text-anchor: end" x="32.83774" y="204.585581" transform="rotate(-0 32.83774 204.585581)">0</text>
     </g>
    </g>
    <g id="text_30">
     <text style="font: 8px 'Arial', 'Microsoft YaHei'; text-anchor: middle" x="15.68649" y="268.664188" transform="rotate(-90 15.68649 268.664188)">变化速率（mV/min）</text>
    </g>
   </g>
   <g id="line2d_51">
    <path d="M 72.12164 303.863965 
L 74.451406 295.597958 
L 76.448348 288.636039 
L 78.112467 283.587423 
L 80.442233 277.253518 
L 83.104822 270.825822 
L 85.767412 265.081209 
L 88.430002 259.737398 
L 89.761296 256.990499 
L 91.092591 254.36821 
L 94.088005 248.340456 
L 96.750594 243.735649 
L 98.414713 241.446477 
L 100.078831 239.560217 
L 105.071187 234.115405 
L 106.069658 233.271233 
L 106.735306 232.851996 
L 110.72919 229.841197 
L 111.394838 229.477022 
L 112.393309 228.740381 
L 113.724604 227.600183 
L 115.388722 226.448456 
L 117.052841 225.032942 
L 119.049783 223.041356 
L 119.71543 222.713139 
L 120.381078 222.546785 
L 121.046725 222.323559 
L 123.709315 221.820615 
L 125.706257 220.999734 
L 130.365789 219.555517 
L 131.031436 219.658483 
L 132.029908 219.3679 
L 132.695555 219.053991 
L 133.361202 218.744184 
L 134.692497 217.859175 
L 137.355087 216.897752 
L 139.684853 215.504729 
L 141.681795 215.35459 
L 144.011561 215.621646 
L 145.342856 215.667198 
L 148.338269 215.20934 
L 150.002388 215.09722 
L 150.335212 215.013225 
L 151.000859 215.014892 
L 153.663449 214.420786 
L 154.66192 213.795085 
L 156.991686 213.265944 
L 157.990157 213.038426 
L 162.316865 211.765109 
L 163.980984 211.223097 
L 164.646631 211.075401 
L 167.309221 210.639926 
L 168.640516 210.363834 
L 169.97181 210.309064 
L 171.635929 210.05204 
L 175.29699 209.998077 
L 175.962637 210.050116 
L 180.622169 209.877957 
L 181.62064 209.767132 
L 182.951935 209.502843 
L 183.950406 208.856916 
L 184.948877 207.885776 
L 185.614525 207.66805 
L 186.280172 207.533329 
L 187.278643 207.134837 
L 188.277115 206.944623 
L 189.941233 206.691456 
L 191.272528 206.420067 
L 193.935118 206.148093 
L 194.933589 206.160179 
L 195.93206 206.313242 
L 198.59465 206.465711 
L 200.258768 206.631915 
L 200.924415 206.856105 
L 201.590063 207.137313 
L 203.254181 207.413796 
L 203.919829 207.236795 
L 204.585476 206.873569 
L 205.251124 206.52622 
L 207.58089 206.166891 
L 209.577832 205.851778 
L 210.243479 205.632994 
L 210.909127 205.391544 
L 211.24195 205.243825 
L 211.907598 205.107144 
L 212.906069 204.531126 
L 219.22972 199.376106 
L 219.562543 199.233603 
L 220.228191 199.279519 
L 220.893838 199.630703 
L 221.892309 200.156015 
L 225.220546 200.68724 
L 225.886194 201.261774 
L 226.551841 201.788529 
L 227.217489 202.365513 
L 227.883136 203.047317 
L 229.214431 203.96653 
L 230.878549 204.836965 
L 231.211373 204.920052 
L 232.875492 206.276682 
L 236.869376 208.217279 
L 237.535024 208.381574 
L 238.866318 208.113167 
L 239.531966 208.322759 
L 241.861732 209.860563 
L 243.52585 209.921192 
L 245.189969 210.123646 
L 246.521264 211.028984 
L 247.519735 211.067004 
L 248.185382 210.852532 
L 248.85103 210.36463 
L 250.182325 208.803139 
L 251.180796 207.19287 
L 252.179267 205.663442 
L 253.510562 204.060196 
L 253.510562 204.060196 
" clip-path="url(#pb85fac11ac)" style="fill: none; stroke: #477da5; stroke-linecap: square"/>
   </g>
   <g id="line2d_52">
    <path d="M 69.791874 231.040278 
L 70.124698 230.775133 
L 71.123169 225.890258 
L 72.12164 222.200064 
L 73.120111 219.581212 
L 74.451406 217.054236 
L 75.117053 216.054444 
L 75.782701 215.11812 
L 78.112467 212.930839 
L 79.443761 212.127564 
L 82.439175 210.558321 
L 83.437646 210.231706 
L 85.434588 209.261959 
L 86.100236 209.065053 
L 86.765883 208.650929 
L 87.098707 208.726166 
L 88.097178 208.49078 
L 91.425415 207.169804 
L 91.758239 206.940785 
L 92.423886 207.001043 
L 92.75671 206.820457 
L 93.422357 206.707232 
L 94.420828 206.262199 
L 95.752123 205.635623 
L 98.081889 204.89193 
L 98.414713 204.785925 
L 99.08036 204.400858 
L 99.413184 204.292229 
L 100.411655 204.398577 
L 101.077303 204.231963 
L 101.74295 204.080433 
L 102.075774 203.855851 
L 103.407069 203.753074 
L 106.735306 202.896701 
L 107.400953 203.042541 
L 108.399424 202.84346 
L 109.730719 202.325888 
L 111.062014 202.832976 
L 111.727661 202.738826 
L 112.726132 203.093416 
L 116.387193 202.818151 
L 118.716959 202.510394 
L 119.382607 202.224767 
L 121.379549 202.594861 
L 123.043667 202.756723 
L 124.374962 203.05748 
L 125.04061 202.802339 
L 127.037552 201.72704 
L 129.700142 200.682 
L 130.365789 200.931808 
L 131.36426 201.209813 
L 132.695555 201.257589 
L 134.692497 201.173453 
L 138.353558 201.255336 
L 139.019205 201.412014 
L 140.017677 201.069436 
L 141.016148 201.242294 
L 141.681795 201.392792 
L 142.347443 201.484979 
L 143.678737 202.066687 
L 144.677209 202.478607 
L 145.342856 202.451564 
L 146.008503 202.483933 
L 147.339798 201.811796 
L 148.338269 201.789485 
L 149.003917 201.813377 
L 150.002388 201.725153 
L 151.666506 201.838389 
L 151.99933 201.825405 
L 152.997801 202.131408 
L 154.329096 201.700301 
L 155.993215 201.589886 
L 157.657333 201.491249 
L 157.990157 201.586106 
L 158.322981 201.852776 
L 158.655804 201.973296 
L 159.321452 201.739598 
L 159.987099 201.543537 
L 161.651218 201.592206 
L 162.649689 201.560351 
L 162.982513 201.58519 
L 163.315336 201.741342 
L 163.64816 201.737263 
L 163.980984 201.612437 
L 164.979455 201.768223 
L 165.977926 202.197941 
L 166.643573 202.040884 
L 167.309221 201.964787 
L 167.974868 202.019229 
L 168.640516 202.32725 
L 169.306163 202.158179 
L 170.970282 202.124998 
L 172.301576 202.319986 
L 172.967224 202.640716 
L 173.300048 202.711216 
L 173.965695 202.409907 
L 177.95958 202.117367 
L 178.292403 202.210131 
L 178.625227 202.167207 
L 179.290874 201.858701 
L 180.954993 201.573739 
L 181.287817 201.655688 
L 182.286288 201.370262 
L 183.617583 201.387289 
L 183.950406 201.230871 
L 184.28323 201.213253 
L 184.948877 201.362113 
L 187.611467 201.01143 
L 188.277115 201.139874 
L 188.609938 201.165841 
L 189.275586 200.978561 
L 190.60688 200.977834 
L 190.939704 201.014457 
L 191.605352 200.924243 
L 192.936646 200.919966 
L 193.26947 201.113332 
L 193.602294 201.074767 
L 193.935118 200.906157 
L 196.264884 200.799035 
L 196.930531 200.739305 
L 197.596178 200.817643 
L 198.261826 200.691992 
L 199.260297 200.709785 
L 200.924415 200.677489 
L 201.257239 200.834868 
L 201.590063 200.849504 
L 201.922887 200.713187 
L 202.921358 200.696559 
L 204.252653 200.705344 
L 204.9183 200.816087 
L 205.583947 200.699962 
L 208.246537 200.576752 
L 208.912185 200.565784 
L 209.245008 200.636475 
L 209.910656 200.520363 
L 212.573245 200.432316 
L 213.571716 200.442873 
L 214.237364 200.387158 
L 215.901482 200.326136 
L 216.234306 200.404742 
L 216.56713 200.211273 
L 221.226662 200.287222 
L 221.559485 200.406846 
L 222.225133 200.353666 
L 222.89078 200.378851 
L 223.223604 200.502728 
L 223.556428 200.447337 
L 224.222075 200.578042 
L 224.887723 200.596035 
L 229.547255 200.801041 
L 229.880078 200.934456 
L 231.211373 200.927427 
L 231.544197 201.035684 
L 233.541139 201.009781 
L 234.206786 201.140125 
L 234.872434 201.090193 
L 235.870905 201.015957 
L 236.203729 201.139148 
L 238.200671 200.966025 
L 238.533495 201.159364 
L 238.866318 201.008494 
L 242.860203 201.166987 
L 243.193027 201.294831 
L 243.858674 201.288306 
L 245.189969 201.410135 
L 245.522793 201.567537 
L 246.18844 201.483029 
L 247.519735 201.490761 
L 247.852559 201.552825 
L 248.518206 201.455108 
L 248.85103 201.506417 
L 249.516677 201.440268 
L 250.182325 201.437609 
L 254.176209 201.53408 
L 254.509033 201.434478 
L 254.841856 201.49486 
L 255.840328 201.313393 
L 256.505975 201.350746 
L 256.505975 201.350746 
" clip-path="url(#pb85fac11ac)" style="fill: none; stroke: #bc7966; stroke-linecap: square"/>
   </g>
   <g id="patch_10">
    <path d="M 39.83774 345.05601 
L 39.83774 192.272365 
" style="fill: none; stroke: #000000; stroke-width: 0.7; stroke-linejoin: miter; stroke-linecap: square"/>
   </g>
   <g id="patch_11">
    <path d="M 39.83774 345.05601 
L 266.82351 345.05601 
" style="fill: none; stroke: #000000; stroke-width: 0.7; stroke-linejoin: miter; stroke-linecap: square"/>
   </g>
   <g id="text_31">
    <text style="font: 700 9.6px 'Arial', 'Microsoft YaHei'; text-anchor: start" x="39.83774" y="186.272365" transform="rotate(-0 39.83774 186.272365)">c  60秒滚动斜率</text>
   </g>
  </g>
  <g id="axes_4">
   <g id="patch_12">
    <path d="M 288.41399 345.05601 
L 515.39976 345.05601 
L 515.39976 192.272365 
L 288.41399 192.272365 
z
" style="fill: #ffffff"/>
   </g>
   <g id="patch_13">
    <path d="M 288.41399 204.046171 
L 288.41399 199.398741 
L 515.39976 199.398741 
L 515.39976 204.046171 
z
" clip-path="url(#pde98464874)" style="fill: #e6e6e6; stroke: #e6e6e6; stroke-linejoin: miter"/>
   </g>
   <g id="matplotlib.axis_7">
    <g id="xtick_22">
     <g id="line2d_53">
      <g>
       <use xlink:href="#m0222ed650e" x="293.531155" y="345.05601" style="stroke: #000000; stroke-width: 0.8"/>
      </g>
     </g>
     <g id="text_32">
      <text style="font: 8px 'Arial', 'Microsoft YaHei'; text-anchor: middle" x="293.531155" y="357.78226" transform="rotate(-0 293.531155 357.78226)">0</text>
     </g>
    </g>
    <g id="xtick_23">
     <g id="line2d_54">
      <g>
       <use xlink:href="#m0222ed650e" x="326.813526" y="345.05601" style="stroke: #000000; stroke-width: 0.8"/>
      </g>
     </g>
     <g id="text_33">
      <text style="font: 8px 'Arial', 'Microsoft YaHei'; text-anchor: middle" x="326.813526" y="357.78226" transform="rotate(-0 326.813526 357.78226)">100</text>
     </g>
    </g>
    <g id="xtick_24">
     <g id="line2d_55">
      <g>
       <use xlink:href="#m0222ed650e" x="360.095896" y="345.05601" style="stroke: #000000; stroke-width: 0.8"/>
      </g>
     </g>
     <g id="text_34">
      <text style="font: 8px 'Arial', 'Microsoft YaHei'; text-anchor: middle" x="360.095896" y="357.78226" transform="rotate(-0 360.095896 357.78226)">200</text>
     </g>
    </g>
    <g id="xtick_25">
     <g id="line2d_56">
      <g>
       <use xlink:href="#m0222ed650e" x="393.378267" y="345.05601" style="stroke: #000000; stroke-width: 0.8"/>
      </g>
     </g>
     <g id="text_35">
      <text style="font: 8px 'Arial', 'Microsoft YaHei'; text-anchor: middle" x="393.378267" y="357.78226" transform="rotate(-0 393.378267 357.78226)">300</text>
     </g>
    </g>
    <g id="xtick_26">
     <g id="line2d_57">
      <g>
       <use xlink:href="#m0222ed650e" x="426.660638" y="345.05601" style="stroke: #000000; stroke-width: 0.8"/>
      </g>
     </g>
     <g id="text_36">
      <text style="font: 8px 'Arial', 'Microsoft YaHei'; text-anchor: middle" x="426.660638" y="357.78226" transform="rotate(-0 426.660638 357.78226)">400</text>
     </g>
    </g>
    <g id="xtick_27">
     <g id="line2d_58">
      <g>
       <use xlink:href="#m0222ed650e" x="459.943009" y="345.05601" style="stroke: #000000; stroke-width: 0.8"/>
      </g>
     </g>
     <g id="text_37">
      <text style="font: 8px 'Arial', 'Microsoft YaHei'; text-anchor: middle" x="459.943009" y="357.78226" transform="rotate(-0 459.943009 357.78226)">500</text>
     </g>
    </g>
    <g id="xtick_28">
     <g id="line2d_59">
      <g>
       <use xlink:href="#m0222ed650e" x="493.22538" y="345.05601" style="stroke: #000000; stroke-width: 0.8"/>
      </g>
     </g>
     <g id="text_38">
      <text style="font: 8px 'Arial', 'Microsoft YaHei'; text-anchor: middle" x="493.22538" y="357.78226" transform="rotate(-0 493.22538 357.78226)">600</text>
     </g>
    </g>
    <g id="text_39">
     <text style="font: 8px 'Arial', 'Microsoft YaHei'; text-anchor: middle" x="401.906875" y="369.80976" transform="rotate(-0 401.906875 369.80976)">MCU 上电后时间（秒）</text>
    </g>
   </g>
   <g id="matplotlib.axis_8">
    <g id="ytick_24">
     <g id="line2d_60">
      <g>
       <use xlink:href="#m702857198b" x="288.41399" y="341.145346" style="stroke: #000000; stroke-width: 0.8"/>
      </g>
     </g>
    </g>
    <g id="ytick_25">
     <g id="line2d_61">
      <g>
       <use xlink:href="#m702857198b" x="288.41399" y="317.908197" style="stroke: #000000; stroke-width: 0.8"/>
      </g>
     </g>
    </g>
    <g id="ytick_26">
     <g id="line2d_62">
      <g>
       <use xlink:href="#m702857198b" x="288.41399" y="294.671049" style="stroke: #000000; stroke-width: 0.8"/>
      </g>
     </g>
    </g>
    <g id="ytick_27">
     <g id="line2d_63">
      <g>
       <use xlink:href="#m702857198b" x="288.41399" y="271.433901" style="stroke: #000000; stroke-width: 0.8"/>
      </g>
     </g>
    </g>
    <g id="ytick_28">
     <g id="line2d_64">
      <g>
       <use xlink:href="#m702857198b" x="288.41399" y="248.196753" style="stroke: #000000; stroke-width: 0.8"/>
      </g>
     </g>
    </g>
    <g id="ytick_29">
     <g id="line2d_65">
      <g>
       <use xlink:href="#m702857198b" x="288.41399" y="224.959604" style="stroke: #000000; stroke-width: 0.8"/>
      </g>
     </g>
    </g>
    <g id="ytick_30">
     <g id="line2d_66">
      <g>
       <use xlink:href="#m702857198b" x="288.41399" y="201.722456" style="stroke: #000000; stroke-width: 0.8"/>
      </g>
     </g>
    </g>
    <g id="text_40">
     <text style="font: 8px 'Arial', 'Microsoft YaHei'; text-anchor: middle" x="279.32399" y="268.664188" transform="rotate(-90 279.32399 268.664188)">变化速率（mV/min）</text>
    </g>
   </g>
   <g id="line2d_67">
    <path d="M 320.69789 338.111299 
L 323.027656 328.432191 
L 325.357422 318.807821 
L 328.020011 308.606632 
L 330.349777 300.470971 
L 333.012367 292.320192 
L 336.673428 282.179935 
L 339.336018 275.413153 
L 342.664255 268.221063 
L 346.658139 261.797645 
L 347.989434 260.290801 
L 351.983319 256.486118 
L 353.647437 254.786877 
L 354.645908 253.868626 
L 355.311556 253.408995 
L 356.64285 251.996927 
L 358.639793 249.313961 
L 359.30544 248.536097 
L 359.971088 248.037285 
L 360.969559 246.994469 
L 361.96803 245.732413 
L 362.633677 245.199195 
L 364.297796 244.100039 
L 365.296267 243.131145 
L 367.958857 240.146568 
L 369.290151 239.821978 
L 370.288623 239.933052 
L 370.95427 240.11596 
L 371.619917 239.983239 
L 372.285565 239.743329 
L 373.949683 239.194417 
L 374.615331 238.777367 
L 376.279449 237.974901 
L 377.943568 237.167994 
L 378.942039 236.530955 
L 379.94051 236.322179 
L 380.606158 235.978611 
L 381.604629 235.048726 
L 383.268747 234.176063 
L 384.267218 233.914057 
L 385.931337 233.662102 
L 386.596984 233.401589 
L 388.261103 232.454791 
L 388.92675 232.275919 
L 389.592398 232.110336 
L 390.258045 232.11028 
L 391.256516 232.289059 
L 393.253459 231.839218 
L 393.919106 231.275166 
L 395.250401 229.746482 
L 396.581696 228.857344 
L 397.580167 228.618876 
L 400.242756 227.270108 
L 400.908404 226.584032 
L 401.574051 225.914871 
L 402.572522 225.189442 
L 403.570994 224.271801 
L 404.569465 223.582552 
L 405.567936 223.172481 
L 407.564878 222.90736 
L 408.563349 223.0328 
L 411.558763 222.616405 
L 412.22441 222.576067 
L 413.555705 222.223112 
L 414.221352 222.005365 
L 416.883942 220.808612 
L 417.549589 220.562634 
L 419.879355 219.732487 
L 420.877826 219.482147 
L 422.209121 219.064709 
L 423.207592 218.511735 
L 425.537358 217.665478 
L 427.534301 217.520717 
L 428.199948 217.598679 
L 430.529714 217.674612 
L 431.861009 217.643203 
L 432.193833 217.422238 
L 433.525127 216.014284 
L 434.856422 215.233633 
L 435.52207 214.807086 
L 436.520541 214.487455 
L 437.519012 214.116438 
L 438.517483 213.774162 
L 439.18313 213.47919 
L 440.181602 213.359564 
L 441.512896 213.544556 
L 442.511368 213.672964 
L 444.175486 213.856779 
L 445.173957 213.84454 
L 446.505252 214.032709 
L 447.503723 214.118865 
L 448.169371 214.230991 
L 449.167842 214.277763 
L 449.833489 214.43785 
L 450.499137 214.452684 
L 452.163255 214.341149 
L 452.828903 213.800282 
L 453.49455 213.005253 
L 456.822787 211.082538 
L 459.485377 210.063537 
L 460.151024 209.803172 
L 460.483848 209.667496 
L 462.48079 207.451505 
L 465.809027 203.440553 
L 466.141851 203.137477 
L 467.80597 201.007626 
L 468.138793 200.708075 
L 468.804441 200.586524 
L 470.468559 200.872127 
L 473.463973 199.805677 
L 474.12962 200.343128 
L 475.460915 202.29674 
L 477.125033 204.986791 
L 477.790681 205.683752 
L 478.789152 206.661725 
L 479.454799 207.260063 
L 479.787623 207.441994 
L 481.118918 209.103244 
L 481.784565 209.829386 
L 483.11586 211.499502 
L 483.781508 212.374572 
L 484.779979 213.367885 
L 485.445626 214.165448 
L 486.111274 215.09566 
L 486.776921 215.22354 
L 487.109745 215.142631 
L 487.775392 215.311347 
L 488.108216 215.505277 
L 489.439511 216.737472 
L 490.437982 217.376727 
L 491.103629 217.169849 
L 493.433395 215.865632 
L 493.766219 215.839221 
L 494.431866 216.188301 
L 495.097514 216.562572 
L 495.430337 216.584115 
L 496.095985 216.382226 
L 496.761632 215.826921 
L 497.42728 214.865155 
L 498.425751 212.420435 
L 499.424222 209.263742 
L 500.755517 204.873001 
L 501.421164 203.457454 
L 502.086812 202.439899 
L 502.086812 202.439899 
" clip-path="url(#pde98464874)" style="fill: none; stroke: #477da5; stroke-linecap: square"/>
   </g>
   <g id="line2d_68">
    <path d="M 318.368124 255.821607 
L 319.366595 251.336663 
L 320.365066 247.888607 
L 322.029185 243.948522 
L 323.36048 241.266835 
L 324.026127 240.319152 
L 326.688717 236.117013 
L 331.015425 230.290829 
L 334.010838 226.974229 
L 335.009309 226.125369 
L 335.342133 225.718678 
L 336.00778 225.253982 
L 338.004723 223.531134 
L 338.337546 223.315105 
L 339.003194 223.086976 
L 340.334489 222.157595 
L 341.33296 221.710564 
L 343.329902 220.588884 
L 343.99555 220.390662 
L 344.661197 219.965815 
L 345.326844 219.51571 
L 345.992492 219.499605 
L 346.325315 219.33412 
L 346.658139 219.324733 
L 347.989434 218.758849 
L 349.320729 218.063662 
L 352.648966 216.960162 
L 353.314613 216.490091 
L 353.647437 216.183453 
L 353.980261 216.153832 
L 354.645908 216.328891 
L 355.311556 216.183497 
L 358.306969 215.218824 
L 358.972616 215.265461 
L 364.63062 214.063078 
L 365.296267 213.767647 
L 366.627562 213.825706 
L 370.621446 212.974541 
L 372.285565 212.696728 
L 372.951212 212.447204 
L 373.949683 211.868915 
L 375.280978 211.905694 
L 378.276392 211.485168 
L 378.942039 211.603102 
L 379.607686 211.761826 
L 380.273334 211.645403 
L 381.937452 211.018841 
L 382.935924 210.600534 
L 384.267218 210.473309 
L 385.26569 210.428268 
L 387.595455 210.076885 
L 388.593927 210.015586 
L 389.259574 210.004993 
L 389.925221 210.214393 
L 391.58934 209.916045 
L 392.920635 209.827881 
L 393.919106 209.659995 
L 396.248872 209.576337 
L 396.914519 209.708366 
L 397.247343 209.836431 
L 397.580167 209.834776 
L 398.245814 209.667777 
L 398.911462 209.882588 
L 399.577109 210.195118 
L 400.242756 210.160523 
L 401.574051 209.936293 
L 402.905346 209.477517 
L 403.570994 209.609838 
L 404.236641 209.424686 
L 405.567936 209.352544 
L 406.566407 209.155236 
L 408.563349 208.965495 
L 408.896173 209.059739 
L 409.56182 208.93598 
L 409.894644 208.995195 
L 411.891586 208.510793 
L 414.221352 208.408762 
L 414.887 208.267941 
L 416.883942 208.292502 
L 417.216766 208.419601 
L 417.549589 208.4243 
L 418.215237 208.248272 
L 418.880884 208.403449 
L 419.879355 208.232357 
L 422.874769 208.203805 
L 423.540416 208.588683 
L 424.206064 208.329403 
L 428.532772 208.44631 
L 428.865595 208.613347 
L 429.864067 208.396129 
L 430.862538 208.466569 
L 431.195361 208.499086 
L 431.861009 208.331099 
L 433.525127 208.458446 
L 433.857951 208.536506 
L 434.190775 208.457683 
L 434.523599 208.518807 
L 435.189246 208.388528 
L 435.854893 208.350709 
L 437.186188 208.233904 
L 437.519012 208.304229 
L 438.184659 208.190263 
L 438.517483 208.335666 
L 438.850307 208.337767 
L 439.515954 208.142962 
L 440.181602 208.167975 
L 440.514425 208.195731 
L 441.180073 208.048842 
L 442.511368 207.905939 
L 443.509839 207.9933 
L 444.175486 207.785269 
L 447.1709 207.599906 
L 447.503723 207.600104 
L 448.169371 207.480364 
L 448.502194 207.567575 
L 449.500665 207.433921 
L 450.499137 207.389269 
L 451.164784 207.563142 
L 451.497608 207.412079 
L 454.160197 207.452782 
L 454.493021 207.603422 
L 455.158669 207.469185 
L 458.819729 207.515199 
L 459.8182 207.43454 
L 461.149495 207.526178 
L 462.147966 207.37108 
L 464.144909 207.31342 
L 465.14338 207.195532 
L 465.809027 207.278776 
L 466.141851 207.12805 
L 468.804441 206.947886 
L 470.468559 206.80225 
L 471.799854 206.656681 
L 472.798325 206.564401 
L 473.131149 206.530953 
L 473.463973 206.633035 
L 474.12962 206.49707 
L 475.460915 206.447853 
L 478.789152 206.463963 
L 483.11586 206.432051 
L 483.448684 206.508574 
L 484.114331 206.428475 
L 485.445626 206.436826 
L 485.77845 206.533686 
L 486.111274 206.420118 
L 486.776921 206.405024 
L 487.442568 206.393388 
L 488.108216 206.495063 
L 489.106687 206.406725 
L 493.766219 206.313865 
L 494.099043 206.394981 
L 494.431866 206.328469 
L 494.76469 206.407262 
L 495.430337 206.311415 
L 505.082225 206.177855 
L 505.082225 206.177855 
" clip-path="url(#pde98464874)" style="fill: none; stroke: #bc7966; stroke-linecap: square"/>
   </g>
   <g id="patch_14">
    <path d="M 288.41399 345.05601 
L 288.41399 192.272365 
" style="fill: none; stroke: #000000; stroke-width: 0.7; stroke-linejoin: miter; stroke-linecap: square"/>
   </g>
   <g id="patch_15">
    <path d="M 288.41399 345.05601 
L 515.39976 345.05601 
" style="fill: none; stroke: #000000; stroke-width: 0.7; stroke-linejoin: miter; stroke-linecap: square"/>
   </g>
   <g id="text_41">
    <text style="font: 700 9.6px 'Arial', 'Microsoft YaHei'; text-anchor: start" x="288.41399" y="186.272365" transform="rotate(-0 288.41399 186.272365)">d  60秒滚动斜率</text>
   </g>
  </g>
 </g>
 <defs>
  <clipPath id="p79f44d5910">
   <rect x="39.83774" y="16.50774" width="226.98577" height="152.783645"/>
  </clipPath>
  <clipPath id="p25a11960bb">
   <rect x="288.41399" y="16.50774" width="226.98577" height="152.783645"/>
  </clipPath>
  <clipPath id="pb85fac11ac">
   <rect x="39.83774" y="192.272365" width="226.98577" height="152.783645"/>
  </clipPath>
  <clipPath id="pde98464874">
   <rect x="288.41399" y="192.272365" width="226.98577" height="152.783645"/>
  </clipPath>
 </defs>
</svg>
